HIERARCHY
ROOT hip
{
  OFFSET 0 0 0
  CHANNELS 6 Xposition Yposition Zposition Zrotation Yrotation Xrotation
  JOINT abdomen
  {
    OFFSET 0 20.6881 -0.73152
    CHANNELS 3 Zrotation Xrotation Yrotation
    JOINT chest
    {
      OFFSET 0 11.7043 -0.48768
      CHANNELS 3 Zrotation Xrotation Yrotation
      JOINT neck
      {
        OFFSET 0 22.1894 -2.19456
        CHANNELS 3 Zrotation Xrotation Yrotation
        JOINT head
        {
          OFFSET -0.24384 7.07133 1.2192
          CHANNELS 3 Zrotation Xrotation Yrotation
          JOINT leftEye
          {
            OFFSET 4.14528 8.04674 8.04672
            CHANNELS 3 Zrotation Xrotation Yrotation
            End Site
            {
              OFFSET 1 0 0
            }
          }
          JOINT rightEye
          {
            OFFSET -3.6576 8.04674 8.04672
            CHANNELS 3 Zrotation Xrotation Yrotation
            End Site
            {
              OFFSET 1 0 0
            }
          }
        }
      }
      JOINT rCollar
      {
        OFFSET -2.68224 19.2634 -4.8768
        CHANNELS 3 Zrotation Xrotation Yrotation
        JOINT rShldr
        {
          OFFSET -8.77824 -1.95073 1.46304
          CHANNELS 3 Zrotation Xrotation Yrotation
          JOINT rForeArm
          {
            OFFSET -28.1742 -1.7115 0.48768
            CHANNELS 3 Zrotation Xrotation Yrotation
            JOINT rHand
            {
              OFFSET -22.5879 0.773209 7.07136
              CHANNELS 3 Zrotation Xrotation Yrotation
              JOINT rThumb1
              {
                OFFSET -1.2192 -0.487915 3.41376
                CHANNELS 3 Zrotation Xrotation Yrotation
                JOINT rThumb2
                {
                  OFFSET -3.37035 -0.52449 3.41376
                  CHANNELS 3 Zrotation Xrotation Yrotation
                  End Site
                  {
                    OFFSET -1.78271 -1.18214 1.43049
                  }
                }
              }
              JOINT rIndex1
              {
                OFFSET -7.75947 0.938293 5.60832
                CHANNELS 3 Zrotation Xrotation Yrotation
                JOINT rIndex2
                {
                  OFFSET -2.54057 -0.884171 1.56538
                  CHANNELS 3 Zrotation Xrotation Yrotation
                  End Site
                  {
                    OFFSET -1.62519 -0.234802 1.16502
                  }
                }
              }
              JOINT rMid1
              {
                OFFSET -8.24714 1.18213 3.41376
                CHANNELS 3 Zrotation Xrotation Yrotation
                JOINT rMid2
                {
                  OFFSET -3.10165 -0.590103 1.0647
                  CHANNELS 3 Zrotation Xrotation Yrotation
                  End Site
                  {
                    OFFSET -2.48547 -0.328903 0.83742
                  }
                }
              }
              JOINT rRing1
              {
                OFFSET -8.82822 0.546677 1.51678
                CHANNELS 3 Zrotation Xrotation Yrotation
                JOINT rRing2
                {
                  OFFSET -2.60934 -0.819778 -0.0198488
                  CHANNELS 3 Zrotation Xrotation Yrotation
                  End Site
                  {
                    OFFSET -2.33842 -0.294052 0.168128
                  }
                }
              }
              JOINT rPinky1
              {
                OFFSET -8.27202 -0.0477905 -0.4584
                CHANNELS 3 Zrotation Xrotation Yrotation
                JOINT rPinky2
                {
                  OFFSET -1.82734 -0.647385 -0.700984
                  CHANNELS 3 Zrotation Xrotation Yrotation
                  End Site
                  {
                    OFFSET -1.69225 -0.51767 -0.607171
                  }
                }
              }
            }
          }
        }
      }
      JOINT lCollar
      {
        OFFSET 2.68224 19.2634 -4.8768
        CHANNELS 3 Zrotation Xrotation Yrotation
        JOINT lShldr
        {
          OFFSET 8.77824 -1.95073 1.46304
          CHANNELS 3 Zrotation Xrotation Yrotation
          JOINT lForeArm
          {
            OFFSET 28.1742 -1.7115 0.48768
            CHANNELS 3 Zrotation Xrotation Yrotation
            JOINT lHand
            {
              OFFSET 22.5879 0.773209 7.07136
              CHANNELS 3 Zrotation Xrotation Yrotation
              JOINT lThumb1
              {
                OFFSET 1.2192 -0.487915 3.41376
                CHANNELS 3 Zrotation Xrotation Yrotation
                JOINT lThumb2
                {
                  OFFSET 3.37035 -0.52449 3.41376
                  CHANNELS 3 Zrotation Xrotation Yrotation
                  End Site
                  {
                    OFFSET 1.78271 -1.18214 1.43049
                  }
                }
              }
              JOINT lIndex1
              {
                OFFSET 7.75947 0.938293 5.60832
                CHANNELS 3 Zrotation Xrotation Yrotation
                JOINT lIndex2
                {
                  OFFSET 2.54057 -0.884171 1.56538
                  CHANNELS 3 Zrotation Xrotation Yrotation
                  End Site
                  {
                    OFFSET 1.62519 -0.234802 1.16502
                  }
                }
              }
              JOINT lMid1
              {
                OFFSET 8.24714 1.18213 3.41376
                CHANNELS 3 Zrotation Xrotation Yrotation
                JOINT lMid2
                {
                  OFFSET 3.10165 -0.590103 1.0647
                  CHANNELS 3 Zrotation Xrotation Yrotation
                  End Site
                  {
                    OFFSET 2.48547 -0.328903 0.83742
                  }
                }
              }
              JOINT lRing1
              {
                OFFSET 8.82822 0.546677 1.51678
                CHANNELS 3 Zrotation Xrotation Yrotation
                JOINT lRing2
                {
                  OFFSET 2.60934 -0.819778 -0.0198488
                  CHANNELS 3 Zrotation Xrotation Yrotation
                  End Site
                  {
                    OFFSET 2.33842 -0.294052 0.168128
                  }
                }
              }
              JOINT lPinky1
              {
                OFFSET 8.27202 -0.0477905 -0.4584
                CHANNELS 3 Zrotation Xrotation Yrotation
                JOINT lPinky2
                {
                  OFFSET 1.82734 -0.647385 -0.700984
                  CHANNELS 3 Zrotation Xrotation Yrotation
                  End Site
                  {
                    OFFSET 1.69225 -0.51767 -0.607171
                  }
                }
              }
            }
          }
        }
      }
    }
  }
  JOINT rButtock
  {
    OFFSET -8.77824 4.35084 1.2192
    CHANNELS 3 Zrotation Xrotation Yrotation
    JOINT rThigh
    {
      OFFSET 0 -1.70687 -2.19456
      CHANNELS 3 Zrotation Xrotation Yrotation
      JOINT rShin
      {
        OFFSET 0 -36.8199 0.73152
        CHANNELS 3 Zrotation Xrotation Yrotation
        JOINT rFoot
        {
          OFFSET 0.73152 -45.1104 -5.12064
          CHANNELS 3 Zrotation Xrotation Yrotation
          End Site
          {
            OFFSET -1.1221 -3.69964 12.103
          }
        }
      }
    }
  }
  JOINT lButtock
  {
    OFFSET 8.77824 4.35084 1.2192
    CHANNELS 3 Zrotation Xrotation Yrotation
    JOINT lThigh
    {
      OFFSET 0 -1.70687 -2.19456
      CHANNELS 3 Zrotation Xrotation Yrotation
      JOINT lShin
      {
        OFFSET 0 -36.8199 0.73152
        CHANNELS 3 Zrotation Xrotation Yrotation
        JOINT lFoot
        {
          OFFSET -0.73152 -45.1104 -5.12064
          CHANNELS 3 Zrotation Xrotation Yrotation
          End Site
          {
            OFFSET 1.1221 -3.69964 12.103
          }
        }
      }
    }
  }
}
MOTION
Frames:	5
Frame Time:	0.00833333
12.3212 84.8033 40.8377 0.0 0.0 0.0 -0.305086 -0.00406095 -0.00879771 -0.0843764 -0.00666548 -0.0146211 5.86365e-15 -1.59028e-15 9.31803e-17 1.75179e-14 3.18055e-15 2.79541e-16 -0.0 0.0 0.0 -0.0 0.0 0.0 2.83134e-15 -1.92184e-17 1.49089e-16 6.48082e-14 -8.01351e-16 2.38542e-15 1.05361e-12 -3.30976e-13 0.0 1.20595e-11 2.36206e-13 2.22639e-13 2.84462e-11 -2.03426e-13 5.05708e-13 4.91249e-11 -3.435e-13 8.5875e-13 2.84513e-11 -2.00375e-13 4.92986e-13 7.73091 5.47488 0.417314 2.84469e-11 -2.02661e-13 5.02528e-13 2.90554 0.965183 0.102902 2.8462e-11 -2.02462e-13 4.98552e-13 10.2786 0.731801 0.0259123 2.84513e-11 -2.05146e-13 5.05708e-13 2.22167 -0.733487 -0.20892 2.93361e-15 -1.98008e-17 -4.96962e-17 5.88761e-14 -6.02566e-16 1.98785e-16 1.05435e-12 3.02153e-13 0.0 1.20577e-11 -3.88574e-13 2.3218e-13 2.84451e-11 -1.85733e-13 4.89805e-13 4.91229e-11 -3.18055e-13 8.55569e-13 2.84377e-11 -1.79701e-13 4.99347e-13 -7.73091 5.47488 -0.417314 2.84418e-11 -1.8477e-13 4.86625e-13 -2.90554 0.965183 -0.102902 2.8427e-11 -1.84671e-13 4.94576e-13 -10.2786 0.731801 -0.0259123 2.84473e-11 -1.8805e-13 4.89805e-13 -2.22167 -0.733487 0.20892 -2.03217e-16 0.0 -3.88251e-19 0.199371 -2.70344 -0.0288716 -0.00656355 -0.653368 -0.0573634 -0.429989 3.35781 0.115503 2.03217e-16 0.0 3.88251e-19 -0.667244 -3.93836 0.0583943 0.0031087 1.58344 0.0241673 0.437805 2.35596 -0.0966899
11.7658 82.8945 39.5403 0.8358 -7.6477 7.3534 -0.950409 -3.22911 -1.26233 0.13401 -1.43283 -0.361348 -0.632761 2.21782 -2.28057 -0.49881 2.11778 -4.4916 -0.0 0.0 0.0 -0.0 0.0 0.0 -1.61226e-14 2.43358e-14 -4.22825e-14 20.9748 1.65012 -1.80041 -3.38634 -1.40344 5.42685 0.0474424 4.83471 0.670766 3.67741e-10 -2.96006e-10 -2.65988e-10 6.30935e-10 -5.09306e-10 -4.64942e-10 3.67745e-10 -2.96004e-10 -2.65997e-10 7.73091 5.47488 0.417314 3.67741e-10 -2.96006e-10 -2.65991e-10 2.90554 0.965183 0.102902 3.67752e-10 -2.96005e-10 -2.65993e-10 10.2786 0.731801 0.0259123 3.67743e-10 -2.96007e-10 -2.65985e-10 2.22167 -0.733487 -0.20892 -1.6019e-14 2.43381e-14 -4.2437e-14 -22.4003 1.28404 4.30682 4.69178 -2.23522 -7.21347 -0.0447898 4.69742 -0.652191 2.06507e-10 4.43003e-10 2.2246e-10 3.59357e-10 7.6688e-10 3.81724e-10 2.065e-10 4.43006e-10 2.22469e-10 -7.73091 5.47488 -0.417314 2.06504e-10 4.43003e-10 2.22457e-10 -2.90554 0.965183 -0.102902 2.06493e-10 4.43003e-10 2.22464e-10 -10.2786 0.731801 -0.0259123 2.06509e-10 4.43001e-10 2.22458e-10 -2.22167 -0.733487 0.20892 -2.03217e-16 0.0 -3.88251e-19 -1.16514 -7.66682 2.1903 0.0140775 6.86909 0.0952838 -0.980202 -0.20354 -5.03344 2.03217e-16 0.0 3.88251e-19 -0.523881 -6.846 -3.40811 -0.0240093 6.69619 -0.0908748 1.0737 -1.24699 6.95705
11.7652 82.895 39.5426 0.8447 -7.6728 7.3437 -1.78723 -6.63286 -2.60059 0.346418 -2.94004 -0.728533 -1.10694 4.55328 -4.70308 -0.667552 4.30604 -9.26086 -0.0 0.0 0.0 -0.0 0.0 0.0 -3.81555e-14 5.16727e-14 -9.52272e-14 43.2613 3.39085 -3.70805 -6.67944 -2.84567 11.1757 -0.0271866 9.94251 1.39579 7.72504e-10 -7.09362e-10 -5.38594e-10 1.32559e-09 -1.22158e-09 -9.42286e-10 7.72507e-10 -7.09361e-10 -5.386e-10 7.73091 5.47488 0.417314 7.72504e-10 -7.09362e-10 -5.38597e-10 2.90554 0.965183 0.102902 7.72512e-10 -7.09361e-10 -5.38596e-10 10.2786 0.731801 0.0259123 7.72503e-10 -7.09362e-10 -5.38588e-10 2.22167 -0.733487 -0.20892 -3.80468e-14 5.16783e-14 -9.53328e-14 -46.2896 2.61764 8.86638 9.04497 -4.48014 -14.8745 0.0256587 9.66164 -1.35644 4.54513e-10 9.90962e-10 4.42333e-10 7.90369e-10 1.71464e-09 7.57818e-10 4.54506e-10 9.90962e-10 4.42341e-10 -7.73091 5.47488 -0.417314 4.54512e-10 9.9096e-10 4.42329e-10 -2.90554 0.965183 -0.102902 4.54503e-10 9.9096e-10 4.42334e-10 -10.2786 0.731801 -0.0259123 4.54515e-10 9.90959e-10 4.42327e-10 -2.22167 -0.733487 0.20892 -2.03217e-16 0.0 -3.88251e-19 -2.17976 -12.885 4.61164 -0.00890816 14.8211 0.264032 -2.25498 -3.90383 -10.5003 2.03217e-16 0.0 3.88251e-19 -0.759127 -9.86972 -7.12888 -0.0298944 12.1015 -0.216017 2.70311 -4.91443 14.4646
11.7662 82.8951 39.5607 0.838 -7.6604 7.343 -2.66926 -9.66047 -3.81761 0.518878 -4.28451 -1.05742 -1.36701 6.61116 -6.88255 -0.505585 6.197 -13.5462 -0.0 0.0 0.0 -0.0 0.0 0.0 -5.40306e-14 7.30458e-14 -1.27146e-13 63.236 4.93079 -5.41909 -9.37168 -4.05948 16.3177 -0.206701 14.496 2.0711 1.04633e-09 -8.87612e-10 -7.98974e-10 1.79455e-09 -1.52723e-09 -1.39654e-09 1.04633e-09 -8.87611e-10 -7.98978e-10 7.73091 5.47488 0.417314 1.04633e-09 -8.87612e-10 -7.98978e-10 2.90554 0.965183 0.102902 1.04633e-09 -8.87611e-10 -7.98975e-10 10.2786 0.731801 0.0259123 1.04633e-09 -8.87611e-10 -7.98966e-10 2.22167 -0.733487 -0.20892 -5.39243e-14 7.3054e-14 -1.27212e-13 -67.7755 3.76514 12.9456 12.423 -6.28142 -21.7611 0.194846 14.0848 -2.01047 5.6263e-10 1.32938e-09 6.66402e-10 9.79826e-10 2.30128e-09 1.14346e-09 5.62623e-10 1.32938e-09 6.66409e-10 -7.73091 5.47488 -0.417314 5.6263e-10 1.32938e-09 6.66398e-10 -2.90554 0.965183 -0.102902 5.62624e-10 1.32938e-09 6.66402e-10 -10.2786 0.731801 -0.0259123 5.62632e-10 1.32938e-09 6.66393e-10 -2.22167 -0.733487 0.20892 -2.03217e-16 0.0 -3.88251e-19 -2.69408 -17.4908 6.88981 -0.0720755 21.9135 0.429555 -3.98789 -7.06648 -15.4511 2.03217e-16 0.0 3.88251e-19 -1.30882 -12.4907 -10.5196 -0.0142947 16.9214 -0.333521 4.9639 -7.91046 21.2715
11.7645 82.8949 39.5755 0.8405 -7.6771 7.3482 -3.36053 -11.7655 -4.6857 0.628105 -5.22272 -1.28807 -1.46842 8.01551 -8.4153 -0.208524 7.49249 -16.5548 -0.0 0.0 0.0 -0.0 0.0 0.0 -5.45111e-14 7.95092e-14 -1.06499e-13 77.2111 5.98743 -6.62153 -11.1137 -4.84619 19.9073 -0.398994 17.6716 2.56631 9.92809e-10 -4.78098e-10 -1.02879e-09 1.69928e-09 -8.16312e-10 -1.79308e-09 9.9281e-10 -4.78098e-10 -1.02879e-09 7.73091 5.47488 0.417314 9.92808e-10 -4.78098e-10 -1.02879e-09 2.90554 0.965183 0.102902 9.9281e-10 -4.78097e-10 -1.02879e-09 10.2786 0.731801 0.0259123 9.92803e-10 -4.78097e-10 -1.02878e-09 2.22167 -0.733487 -0.20892 -5.44265e-14 7.95185e-14 -1.06549e-13 -82.849 4.53026 15.8001 14.5139 -7.37791 -26.5967 0.375451 17.1626 -2.48766 3.21025e-10 1.14395e-09 9.00962e-10 5.65398e-10 1.98513e-09 1.55298e-09 3.21019e-10 1.14395e-09 9.00968e-10 -7.73091 5.47488 -0.417314 3.21026e-10 1.14395e-09 9.00959e-10 -2.90554 0.965183 -0.102902 3.21021e-10 1.14395e-09 9.00961e-10 -10.2786 0.731801 -0.0259123 3.21028e-10 1.14395e-09 9.00953e-10 -2.22167 -0.733487 0.20892 -2.03217e-16 0.0 -3.88251e-19 -2.81974 -20.6606 8.57456 -0.143397 26.8572 0.558603 -5.52485 -9.15305 -18.969 2.03217e-16 0.0 3.88251e-19 -1.88384 -14.257 -12.9328 0.00905841 20.2783 -0.420248 6.9707 -9.77204 26.1006
